<svg xmlns="http://www.w3.org/2000/svg">
<symbol id="icon-grow" viewBox="0 0 24 24">
<path d="M12.707 18.293l-5.293-5.293h11.586c0.552 0 1-0.448 1-1s-0.448-1-1-1h-11.586l5.293-5.293c0.391-0.391 0.391-1.024 0-1.414s-1.024-0.391-1.414 0l-7 7c-0.096 0.096-0.168 0.206-0.217 0.324-0.051 0.122-0.076 0.253-0.076 0.383 0 0.256 0.098 0.512 0.293 0.707l7 7c0.391 0.391 1.024 0.391 1.414 0s0.391-1.024 0-1.414z"></path>
</symbol>
<symbol id="icon-manage" viewBox="0 0 24 24">
<path d="M10 12C12.2091 12 14 10.2091 14 8C14 5.79086 12.2091 4 10 4C7.79086 4 6 5.79086 6 8C6 10.2091 7.79086 12 10 12Z" />
<path d="M10.67 13.02C10.45 13.01 10.23 13 10 13C7.58 13 5.32 13.67 3.39 14.82C2.51 15.34 2 16.32 2 17.35V20H11.26C10.5537 18.9924 10.127 17.8157 10.0234 16.5896C9.91971 15.3635 10.1428 14.1318 10.67 13.02V13.02ZM20.75 16C20.75 15.78 20.72 15.58 20.69 15.37L21.83 14.36L20.83 12.63L19.38 13.12C19.06 12.85 18.7 12.64 18.3 12.49L18 11H16L15.7 12.49C15.3 12.64 14.94 12.85 14.62 13.12L13.17 12.63L12.17 14.36L13.31 15.37C13.28 15.58 13.25 15.78 13.25 16C13.25 16.22 13.28 16.42 13.31 16.63L12.17 17.64L13.17 19.37L14.62 18.88C14.94 19.15 15.3 19.36 15.7 19.51L16 21H18L18.3 19.51C18.7 19.36 19.06 19.15 19.38 18.88L20.83 19.37L21.83 17.64L20.69 16.63C20.72 16.42 20.75 16.22 20.75 16V16ZM17 18C15.9 18 15 17.1 15 16C15 14.9 15.9 14 17 14C18.1 14 19 14.9 19 16C19 17.1 18.1 18 17 18Z" />
</symbol>
<symbol id="icon-add" viewBox="0 0 24 24">
<path d="M4 22H16V20H4V8H2V20C2 21.103 2.897 22 4 22Z" />
<path d="M20 2H8C6.897 2 6 2.897 6 4V16C6 17.103 6.897 18 8 18H20C21.103 18 22 17.103 22 16V4C22 2.897 21.103 2 20 2ZM18 11H15V14H13V11H10V9H13V6H15V9H18V11Z" />
</symbol>
</svg>